bicep_curl
version=1
nRows=36
nColumns=17
inDegrees=yes

# SIMM Motion File Header:
name bicep_curl
datacolumns 17
datarows 36
otherdata 1
range 0.40000318 0.42
endheader
time	/jointset/r_shoulder/r_shoulder_elev/value	/jointset/r_shoulder/r_shoulder_elev/speed	/jointset/r_elbow/r_elbow_flex/value	/jointset/r_elbow/r_elbow_flex/speed	/forceset/TRIlong/activation	/forceset/TRIlong/fiber_length	/forceset/TRIlat/activation	/forceset/TRIlat/fiber_length	/forceset/TRImed/activation	/forceset/TRImed/fiber_length	/forceset/BIClong/activation	/forceset/BIClong/fiber_length	/forceset/BICshort/activation	/forceset/BICshort/fiber_length	/forceset/BRA/activation	/forceset/BRA/fiber_length
0.40000318	-0.227128570020692	-0.770159551761451	103.708213123599	259.105466462735	0.0228988284272317	0.173986555332143	0.206834164637986	0.107590649809374	0.204168382705229	0.102648669547198	0.937920296572292	0.0839434658738449	0.210563113537122	0.0850730258204423	0.0210899569662526	0.0632050687803571
0.40001114	-0.227134622284477	-0.770263356376145	103.710276155589	259.105600723196	0.0228985217685617	0.173987227826694	0.206861260454657	0.107591349510958	0.204194870336629	0.102649368202295	0.937946208611826	0.0839416470763773	0.210777330891882	0.0850714057043802	0.0210898346944764	0.063204212809975
0.40005094	-0.22716546064407	-0.770777705130191	103.720588166855	259.106266837674	0.0228969793392957	0.173990620835658	0.206996283618341	0.107594837416042	0.204326850879317	0.102652850983288	0.938075583058898	0.0839325354589059	0.211843723675047	0.0850632449774976	0.0210892636530764	0.0631999241222148
0.40024991	-0.227318773145778	-0.773276484117368	103.772141955305	259.109267870228	0.022889290227144	0.174007609439104	0.207660993120197	0.107612043561151	0.204976545843025	0.102670035813678	0.938718110086271	0.0838869669346099	0.21706778326445	0.0850216659164933	0.0210863832909047	0.0631785012661278
0.40124478	-0.228093189989576	-0.780936052657915	104.029923586862	259.104848194809	0.0228511479145921	0.174092533877067	0.210740507832726	0.107694975568597	0.207985582957627	0.102753019180208	0.941827747254473	0.0836592362319977	0.240775314038417	0.0847961860167556	0.0210721199839539	0.0630713229451475
0.40195321	-0.228645318562621	-0.778851878605301	104.21347027394	259.075454710403	0.0228242994100015	0.174153696851716	0.212706190115271	0.107752855337626	0.209905421352181	0.102811093251176	0.94394113922939	0.0834971953124708	0.255550547918661	0.0846216696588479	0.0210620733102126	0.0629949738511076
0.40266165	-0.229194482031459	-0.771683937790601	104.396995593579	259.028962026702	0.0227976939761871	0.174213755128375	0.214502849525521	0.107810690993738	0.211659503426439	0.1028691796674	0.945974564072025	0.0833352751317103	0.268865370817412	0.0844388924610854	0.0210521176271487	0.0629186054522964
0.40337008	-0.229737377381425	-0.76067220133679	104.580477866	258.97034325386	0.0227713566897252	0.17427503240742	0.216145884030848	0.107868752426816	0.21326297145525	0.102927518841294	0.947931192096943	0.0831735223901746	0.280918420866064	0.0842501878007347	0.0210422612786457	0.0628422305985008
0.40407852	-0.230271063274259	-0.74655029838787	104.763921230553	258.906596505315	0.02274526625404	0.174334847512178	0.217649323078368	0.107927151444694	0.214729618349943	0.102986189113342	0.949814223311673	0.0830119364091729	0.291872312795497	0.0840574147617683	0.0210324938021663	0.0627658427013937
0.40478695	-0.230794435000886	-0.731090383327057	104.947314813238	258.84261252204	0.0227194142383837	0.174396427459042	0.219025607238758	0.107985899699308	0.216071687909657	0.103045186144223	0.951626547263087	0.0828505520711495	0.301859964822395	0.0838620434044499	0.0210228157492865	0.06268945164616
0.40539113	-0.231231611825761	-0.716961712010492	105.103688272921	258.792443396563	0.0226975713599388	0.174447274759688	0.220107482659704	0.108036270755533	0.21712626043457	0.103095748962315	0.95311851908356	0.08271307551113	0.309699113426913	0.0836942622626293	0.021014641199946	0.0626243007873805
0.40599531	-0.231660333289931	-0.703170075545624	105.260030214888	258.74833471294	0.0226758982287598	0.174499232500552	0.221111498340162	0.10808687124459	0.218104591671629	0.103146520023328	0.954562820801304	0.0825757550911798	0.316976042453974	0.083526007511422	0.0210065267956687	0.0625591497289896
0.40678179	-0.232206658174426	-0.686005181194362	105.463510961907	258.704112197876	0.0226479517190129	0.174566110111731	0.222311448109904	0.108153051312923	0.219273364632741	0.103212899910688	0.956374214795745	0.0823972598305547	0.325690728326012	0.0833070391154608	0.0209960661388828	0.06247433847085
0.40756827	-0.232739047562695	-0.670421778269497	105.66696483923	258.677211096709	0.0226202957897552	0.174634210385965	0.223401104291132	0.108219547444383	0.220334193052619	0.10327957849137	0.958111059063055	0.0822190481774829	0.333637744491514	0.0830888303662881	0.0209857052875334	0.0623895217464755
0.4081266	-0.233110151655272	-0.660127549419446	105.811390395002	258.670620973027	0.0226008347939796	0.174681079065995	0.224113526005767	0.108266930063475	0.221027485893059	0.10332708011985	0.959300617054591	0.0820927137203308	0.33885972030152	0.082934699589544	0.0209784246315344	0.062329302255556
0.40868493	-0.233476171495912	-0.651419618084077	105.955814616115	258.674699621906	0.0225815302542552	0.174728959323983	0.224779105705358	0.108314444732047	0.221674969931664	0.103374707112755	0.960455344441264	0.0819665233698786	0.34376328080765	0.0827813895804005	0.0209711886595057	0.0622690767772336
0.40955436	-0.234037595313757	-0.640657908202376	106.180724294826	258.703869086075	0.0225517480092006	0.174802985098193	0.225729706182066	0.108388681995214	0.222599321372132	0.103449106487298	0.962186719128778	0.0817703205130958	0.350820125471981	0.0825445428464081	0.0209600359139056	0.062175280361621
0.41	-0.234321518157449	-0.635962990666055	106.296018850387	258.72909839116	0.0225366191504789	0.17484124317959	0.226179490153771	0.108426844390778	0.223036495612277	0.103487345177362	0.963043719189217	0.0816698946079868	0.354185841093878	0.0824241115355265	0.0209543726598571	0.0621271914958502
0.4100123	-0.234329796538504	-0.635720501428606	106.299201181756	258.729799123544	0.0225362036608841	0.17484229095654	0.226191563674093	0.108427904293502	0.223048223618728	0.103488396351705	0.963067088428488	0.0816671295070722	0.354276457758959	0.0824207958140593	0.0209542140542092	0.0621258626284443
0.4100246	-0.234337243669134	-0.635613465115256	106.302383972299	258.730614085971	0.0225357837303105	0.174843341022507	0.226221959502676	0.108428953909186	0.223079881440375	0.103489455789432	0.963090443230303	0.0816643595765076	0.354281739019439	0.0824174871020632	0.0209540540804239	0.0621245326560849
0.41008611	-0.234376526785264	-0.635090794346787	106.318299018426	258.734766919196	0.0225336993484256	0.174848595937932	0.226331729000722	0.108434216084533	0.223192293976678	0.103494725043571	0.963207007455434	0.0816505066951528	0.354501142650572	0.0824009294346705	0.0209532806537289	0.0621179015835853
0.41039364	-0.234571341976372	-0.632720907835105	106.397869806485	258.757358104905	0.0225233231744367	0.174874869349803	0.226868320455168	0.108460452470104	0.223741742973903	0.103520995254955	0.963784098668303	0.0815812651214484	0.355577660844367	0.0823185876126129	0.0209493930881589	0.0620847084085823
0.41164916	-0.235360365485737	-0.624792899737335	106.722812931337	258.868162188832	0.0224813978273848	0.17498217685697	0.228861894698942	0.108566854281714	0.225781890563153	0.103627480912385	0.966045332490365	0.0812990670503218	0.359640217079568	0.0819888621300134	0.0209336855437792	0.0619491520955615
0.41248605	-0.235879706074007	-0.617695038392739	106.939490098575	258.948772618113	0.0224538462290965	0.175053339178427	0.230031733466042	0.108637775212879	0.226978140633618	0.103698461469061	0.967471645224561	0.0811113601622498	0.362076442186381	0.0817741563160708	0.0209233667902649	0.0618587434477009
0.41313159	-0.236276587393469	-0.611944612809604	107.106672653646	259.012130191394	0.0224328068367367	0.175109083241853	0.230856716265398	0.108692636034472	0.227821292377893	0.103753364850455	0.968529789104682	0.0809667806803372	0.36382126486928	0.0816109575933582	0.020915475432842	0.0617889767272587
0.41377713	-0.236669226840017	-0.605492970993425	107.273895361629	259.075947134722	0.0224119484899055	0.175163742651517	0.231620022069388	0.108747648098843	0.228601067402734	0.10380842558721	0.969552703696463	0.0808223812652389	0.365457647372045	0.0814496424784923	0.0209076628925298	0.0617191885361541
0.41442267	-0.237057342579555	-0.598531676174913	107.441159780428	259.138751381599	0.0223912586544444	0.175219400621352	0.232326434383905	0.108802828122699	0.229322392082472	0.103863635225018	0.970541613654929	0.0806781583252892	0.366992808465993	0.0812900340591172	0.0208999098356311	0.0616493727252332
0.41506821	-0.237441639155684	-0.590704749794535	107.608463553642	259.200547943623	0.0223707571582374	0.175274134391668	0.232980296824611	0.108858164753995	0.229989772536162	0.103919000591406	0.971497712407299	0.0805341118023691	0.368433395513195	0.0811319799185127	0.0208922261766138	0.0615795300224632
0.41571375	-0.237819689349392	-0.582338714403889	107.775807041416	259.260117315683	0.0223504340881505	0.175329770632912	0.233585644192692	0.108913647490661	0.230607360347032	0.103974502564204	0.9724221164695	0.0803902323958602	0.369785609534945	0.0809753451261975	0.0208846119155557	0.0615096654156076
0.41635929	-0.238192771171782	-0.573126278969825	107.943188570603	259.317531704968	0.0223302795310051	0.17538454620901	0.234146155231432	0.10896927573773	0.231178970032561	0.104030135600437	0.973315923420141	0.0802465200465224	0.371055165690724	0.0808200041055462	0.020877057138126	0.0614397795199574
0.41700483	-0.238559623666813	-0.563405227019261	108.110605712396	259.371770778772	0.0223103034010138	0.175440207694238	0.234665244390027	0.109025034502397	0.231708105930793	0.104085894375769	0.974180202205224	0.0801029747080321	0.372247385435738	0.0806658316807865	0.0208695717588018	0.0613698684138008
0.41765037	-0.238919794168412	-0.552828499144378	108.278056763636	259.422772729719	0.0222905056986966	0.1754949618113	0.235146024100756	0.109080909411479	0.232197989230417	0.104141760715656	0.975015944761188	0.079959596290653	0.373367223257339	0.0805127376834911	0.0208621458632437	0.0612999374770877
0.41829591	-0.239272602083175	-0.541789202293928	108.445539962137	259.469680189404	0.0222708665970967	0.175550687149292	0.23559138754748	0.109136900879085	0.232651603643343	0.104197734605592	0.975824133673804	0.0798163668563472	0.374419293618261	0.0803606322655903	0.0208547794515161	0.0612299874243436
0.41894145	-0.239618185969046	-0.52991476977059	108.613051340776	259.512576140118	0.0222514059241595	0.175605373643454	0.236003998924354	0.109192994760925	0.233071685627138	0.104253807070602	0.976605713146758	0.0796733044433593	0.375407860489507	0.0802094260561794	0.0208474824381052	0.0611600193520917
0.41958699	-0.239956409831944	-0.517635564511745	108.78058970846	259.550380291312	0.0222321137666367	0.175661240900228	0.236386302281875	0.109249187344948	0.233460742455525	0.104309960930494	0.977361598649589	0.0795303911085589	0.376336930388256	0.0800590557412209	0.0208402548230849	0.061090033858522
0.42	-0.240168424933836	-0.509162351377602	108.887790953514	259.571988675635	0.0222198518697764	0.175696242351637	0.236616047291243	0.109285178012505	0.233694471903134	0.104345933720948	0.977832114829716	0.0794390489744598	0.376901857598748	0.0799632566447133	0.0208356535439245	0.0610452477890241
